








<svg width="803" height="624" viewBox="0 0 803 624" fill="none" xmlns="http://www.w3.org/2000/svg">
<g id="undraw_ride_a_bicycle_re_6tjy 1" clip-path="url(#clip0_2_2)" filter="url(#filter0_d_2_2)">
<g id="body">
<path id="Vector" d="M102.115 443.834H121.1V428.646H102.115V443.834Z" fill="white"/>
<path id="Vector_2" d="M70.9803 443.834H89.9651V428.646H70.9803V443.834Z" fill="white"/>
<path id="Vector_3" d="M102.115 482.563H121.1V467.375H102.115V482.563Z" fill="white"/>
<path id="Vector_4" d="M70.9803 482.563H89.9651V467.375H70.9803V482.563Z" fill="white"/>
<path id="Vector_5" d="M102.115 521.292H121.1V506.104H102.115V521.292Z" fill="white"/>
<path id="Vector_6" d="M70.9803 521.292H89.9651V506.104H70.9803V521.292Z" fill="white"/>
<path id="Vector_7" d="M71 584H90V545H71V584Z" fill="white"/>
<path id="Vector_8" d="M70.9803 598.75H89.9651V583.562H70.9803V598.75Z" fill="white"/>
<path id="Vector_9" d="M212.461 400.928H273.971V396.372H212.461V400.928Z" fill="white"/>
<path id="Vector_10" d="M212.461 429.026H273.971V424.47H212.461V429.026Z" fill="white"/>
<path id="Vector_11" d="M212.461 457.123H273.971V452.567H212.461V457.123Z" fill="white"/>
<path id="Vector_12" d="M248.911 208.043H267.896V192.855H248.911V208.043Z" fill="white"/>
<path id="Vector_13" d="M371.233 482.563H390.218V467.375H371.233V482.563Z" fill="white"/>
<path id="Vector_14" d="M340.098 482.563H359.083V467.375H340.098V482.563Z" fill="white"/>
<path id="Vector_15" d="M371.233 521.292H390.218V506.104H371.233V521.292Z" fill="white"/>
<path id="Vector_16" d="M340.098 521.292H359.083V506.104H340.098V521.292Z" fill="white"/>
<path id="Vector_17" d="M371.233 560.021H390.218V544.833H371.233V560.021Z" fill="white"/>
<path id="Vector_18" d="M340.098 560.021H359.083V544.833H340.098V560.021Z" fill="white"/>
<path id="Vector_19" d="M371.233 598.75H390.218V583.562H371.233V598.75Z" fill="white"/>
<path id="Vector_20" d="M340.098 598.75H359.083V583.562H340.098V598.75Z" fill="white"/>
<path id="Vector_21" d="M518.029 208.043H537.014V192.855H518.029V208.043Z" fill="white"/>
<path id="Vector_22" d="M583.709 257.576H536.946V267.487H583.709V257.576Z" fill="white"/>
<path id="Vector_23" d="M583.709 287.309H536.946V297.22H583.709V287.309Z" fill="white"/>
<path id="Vector_24" d="M583.709 317.041H536.946V326.952H583.709V317.041Z" fill="white"/>
<path id="Vector_25" d="M583.709 346.774H536.946V356.685H583.709V346.774Z" fill="white"/>
<path id="Vector_26" d="M583.709 376.507H536.946V386.418H583.709V376.507Z" fill="white"/>
<path id="Vector_27" d="M583.709 406.239H536.946V416.15H583.709V406.239Z" fill="white"/>
<path id="Vector_28" d="M313.242 462.575L323.986 471.566L364.55 433.48L348.693 420.211L313.242 462.575Z" fill="#FFB6B6"/>
<path id="Vector_29" d="M345.028 459.534L322.275 443.829L382.183 348.848C338.763 323.61 308.902 292.823 284.538 259.005C276.258 247.592 271.21 234.309 282.762 225.747C283.302 225.347 283.856 224.968 284.425 224.61C297.597 216.402 293.321 228.703 311.376 222.662L327.69 240.065L362.937 274.361L423.058 312.739C435.149 320.457 438.504 336.691 430.552 348.999C430.132 349.649 429.684 350.28 429.21 350.893L345.028 459.534Z" fill="#2F2E41"/>
<path id="Vector_30" d="M314.603 455.252L333.441 469.196L327.008 476.883L334.207 502.939C334.562 504.226 334.497 505.593 334.021 506.841C333.545 508.088 332.683 509.15 331.56 509.873C330.437 510.595 329.113 510.94 327.78 510.857C326.448 510.773 325.177 510.266 324.153 509.409L302.792 491.533L305.474 480.848L297.673 487.248L289.619 480.508L314.603 455.252Z" fill="#2F2E41"/>
<path id="Vector_31" d="M288.311 360.348L172.115 401.9L175.483 411.316L291.678 369.764L288.311 360.348Z" fill="#3F3D56"/>
<path id="Vector_32" d="M315.485 521.085L285.209 494.943C283.102 493.123 281.805 490.541 281.602 487.764C281.399 484.987 282.307 482.244 284.127 480.136C285.946 478.029 288.528 476.731 291.305 476.527C294.081 476.323 296.825 477.23 298.933 479.048L329.209 505.19C330.253 506.091 331.11 507.189 331.73 508.421C332.35 509.653 332.721 510.995 332.822 512.371C332.923 513.746 332.752 515.128 332.319 516.437C331.886 517.747 331.199 518.958 330.297 520.002C329.396 521.046 328.298 521.902 327.065 522.522C325.833 523.141 324.491 523.511 323.115 523.612C321.74 523.713 320.358 523.541 319.049 523.107C317.739 522.674 316.528 521.987 315.485 521.085V521.085Z" fill="#3F3D56"/>
<path id="Vector_33" d="M487.47 219.067C485.556 219.727 483.522 219.959 481.509 219.748C479.496 219.536 477.554 218.886 475.819 217.843C474.085 216.8 472.601 215.389 471.47 213.71C470.34 212.031 469.592 210.124 469.278 208.125L361.124 180.275L378.762 161.768L481.773 192.015C485.167 191.711 488.555 192.662 491.294 194.689C494.034 196.715 495.935 199.676 496.637 203.011C497.339 206.345 496.794 209.822 495.104 212.781C493.415 215.74 490.698 217.977 487.47 219.067H487.47Z" fill="#FFB6B6"/>
<path id="Vector_34" d="M323.168 89.7592C323.168 89.7592 305.582 91.7967 305.898 112.062C306.214 132.327 349.322 178.492 356.048 186.141C362.773 193.79 429.892 197.698 429.892 197.698L450.859 179.262L388.69 158.316L323.168 89.7592Z" fill="#6C63FF"/>
<path id="Vector_35" d="M287.496 184.877L283.529 203.485C283.529 203.485 276.308 218.972 277.71 223.11C279.098 227.225 341.592 249.595 341.592 249.595C341.592 249.595 346.947 221.692 355.881 202.87L287.496 184.877Z" fill="#FFB6B6"/>
<path id="Vector_36" d="M487.782 475.919L451.689 493.163C449.177 494.363 446.29 494.516 443.664 493.588C441.039 492.66 438.889 490.727 437.689 488.215C436.488 485.702 436.335 482.815 437.263 480.19C438.191 477.564 440.124 475.415 442.636 474.214L478.729 456.971C481.242 455.77 484.128 455.617 486.754 456.545C489.38 457.473 491.529 459.406 492.729 461.918C493.93 464.431 494.083 467.318 493.155 469.943C492.227 472.569 490.294 474.719 487.782 475.919V475.919Z" fill="#3F3D56"/>
<path id="Vector_37" d="M629.709 523.567C638.546 523.567 645.709 516.403 645.709 507.567C645.709 498.73 638.546 491.567 629.709 491.567C620.872 491.567 613.709 498.73 613.709 507.567C613.709 516.403 620.872 523.567 629.709 523.567Z" fill="#3F3D56"/>
<path id="Vector_38" d="M156.248 523.12C165.085 523.12 172.248 515.957 172.248 507.12C172.248 498.283 165.085 491.12 156.248 491.12C147.412 491.12 140.248 498.283 140.248 507.12C140.248 515.957 147.412 523.12 156.248 523.12Z" fill="#3F3D56"/>
<path id="Vector_39" d="M373.248 523.673C383.495 523.673 391.802 515.367 391.802 505.12C391.802 494.873 383.495 486.567 373.248 486.567C363.002 486.567 354.695 494.873 354.695 505.12C354.695 515.367 363.002 523.673 373.248 523.673Z" fill="#3F3D56"/>
<path id="Vector_40" d="M160.357 505.986L153.061 499.147L283.296 360.214L515.708 290.657L631.053 493.091L622.365 498.042L510.957 302.518L288.748 369.021L160.357 505.986Z" fill="#3F3D56"/>
<path id="Vector_41" d="M357.492 499.678H259.219V509.678H357.492V499.678Z" fill="#3F3D56"/>
<path id="Vector_42" d="M291.022 312.334H281.022V364.617H291.022V312.334Z" fill="#3F3D56"/>
<path id="Vector_43" d="M485.467 194.03L475.951 197.103L508.574 298.124L518.09 295.051L485.467 194.03Z" fill="#3F3D56"/>
<path id="Vector_44" d="M290.024 358.039L281.394 363.094L363.394 503.094L372.024 498.039L290.024 358.039Z" fill="#3F3D56"/>
<path id="Vector_45" d="M559.888 378.43L383.896 498.442L389.53 506.703L565.522 386.692L559.888 378.43Z" fill="#3F3D56"/>
<path id="Vector_46" d="M305.209 318.567H265.209C262.424 318.567 259.754 317.46 257.784 315.491C255.815 313.522 254.709 310.851 254.709 308.067C254.709 305.282 255.815 302.611 257.784 300.642C259.754 298.673 262.424 297.567 265.209 297.567H305.209C307.994 297.567 310.665 298.673 312.634 300.642C314.603 302.611 315.709 305.282 315.709 308.067C315.709 310.851 314.603 313.522 312.634 315.491C310.665 317.46 307.994 318.567 305.209 318.567V318.567Z" fill="#6C63FF"/>
<path id="Vector_47" d="M500.209 205.567H460.209C457.424 205.567 454.754 204.46 452.784 202.491C450.815 200.522 449.709 197.851 449.709 195.067C449.709 192.282 450.815 189.611 452.784 187.642C454.754 185.673 457.424 184.567 460.209 184.567H500.209C502.994 184.567 505.665 185.673 507.634 187.642C509.603 189.611 510.709 192.282 510.709 195.067C510.709 197.851 509.603 200.522 507.634 202.491C505.665 204.46 502.994 205.567 500.209 205.567Z" fill="#6C63FF"/>
<path id="Vector_48" d="M798.67 614.121C798.67 614.277 798.64 614.432 798.58 614.577C798.521 614.721 798.433 614.853 798.322 614.963C798.212 615.074 798.081 615.162 797.936 615.221C797.791 615.281 797.636 615.311 797.48 615.311H5.18997C4.87436 615.311 4.57168 615.185 4.34851 614.962C4.12534 614.739 3.99997 614.436 3.99997 614.121C3.99997 613.805 4.12534 613.502 4.34851 613.279C4.57168 613.056 4.87436 612.931 5.18997 612.931H797.48C797.636 612.93 797.791 612.961 797.936 613.02C798.081 613.08 798.212 613.168 798.322 613.278C798.433 613.389 798.521 613.52 798.58 613.665C798.64 613.809 798.67 613.964 798.67 614.121V614.121Z" fill="#CCCCCC"/>
<path id="Vector_49" d="M351.808 74.8749C367.907 72.1379 378.739 56.8684 376.002 40.7696C373.265 24.6708 357.995 13.8389 341.896 16.5759C325.797 19.3128 314.966 34.5823 317.702 50.6811C320.439 66.7799 335.709 77.6119 351.808 74.8749Z" fill="#FFB6B6"/>
<path id="Vector_50" d="M529.869 328.593L496.475 258.103L496.927 257.889C499.241 256.792 501.749 256.163 504.306 256.035C506.864 255.908 509.422 256.286 511.833 257.147C514.245 258.008 516.463 259.336 518.362 261.054C520.26 262.773 521.801 264.849 522.898 267.163L539.594 302.408C540.691 304.723 541.321 307.23 541.448 309.788C541.575 312.345 541.198 314.903 540.336 317.314C539.475 319.726 538.147 321.944 536.429 323.843C534.71 325.741 532.635 327.282 530.32 328.379L529.869 328.593Z" fill="#3F3D56"/>
<path id="Vector_51" d="M427.791 340.983C423.586 340.971 419.498 339.604 416.133 337.083C412.769 334.563 410.307 331.023 409.115 326.992L408.973 326.512L483.785 304.439L483.926 304.918C484.651 307.374 484.885 309.949 484.615 312.496C484.344 315.042 483.575 317.51 482.351 319.759C481.126 322.009 479.471 323.995 477.479 325.604C475.487 327.213 473.198 328.415 470.742 329.139L433.336 340.176C431.536 340.709 429.668 340.981 427.791 340.983V340.983Z" fill="#3F3D56"/>
<path id="Vector_52" d="M437.406 462.464L451.019 459.106L444.726 403.809L424.634 408.767L437.406 462.464Z" fill="#FFB6B6"/>
<path id="Vector_53" d="M430.959 446.596L452.204 436.697L455.888 446.02L482.221 452.13C483.522 452.432 484.692 453.141 485.561 454.155C486.429 455.169 486.951 456.434 487.05 457.765C487.149 459.097 486.82 460.425 486.111 461.556C485.402 462.687 484.349 463.562 483.108 464.053L457.204 474.291L449.094 466.835L450.995 476.745L441.229 480.605L430.959 446.596Z" fill="#2F2E41"/>
<path id="Vector_54" d="M451.782 412.637L422.756 430.043L391.798 320.712C341.578 320.283 295.143 314.66 257.23 297.342C244.385 291.526 238.672 276.144 244.468 262.986C244.739 262.371 245.033 261.767 245.35 261.175C252.73 247.522 267.038 239.504 279.733 225.315L342.709 248.567L338.196 265.525L409.433 269.101C423.759 269.82 434.712 282.264 433.897 296.894C433.854 297.667 433.778 298.437 433.669 299.204L451.782 412.637Z" fill="#2F2E41"/>
<path id="Vector_55" d="M328.641 74.5894L347.994 84.7086C349.063 85.1353 349.972 85.885 350.595 86.853C351.218 87.8211 351.523 88.9594 351.469 90.1093L356.51 110.281L374.247 147.825C374.247 147.825 378.869 167.806 370.049 186.671C361.229 205.537 341.709 252.567 341.709 252.567C328.978 283.06 224.476 259.512 251.709 233.567C254.949 230.479 273.162 204.403 279.826 202.904L296.176 109.339C297 104.399 298.907 99.7024 301.761 95.5864C304.614 91.4704 308.342 88.0368 312.679 85.5317C315.299 84.0508 317.727 83.174 319.392 83.6215C323.185 84.5055 324.978 75.9146 328.641 74.5894Z" fill="#6C63FF"/>
<path id="Vector_56" d="M496.72 198.566C494.96 199.566 493.003 200.167 490.985 200.329C488.968 200.49 486.939 200.207 485.043 199.5C483.147 198.793 481.429 197.678 480.01 196.235C478.591 194.792 477.505 193.055 476.83 191.147L365.402 183.611L379.346 162.182L486.157 173.018C489.438 172.097 492.943 172.41 496.008 173.9C499.072 175.389 501.484 177.951 502.786 181.1C504.088 184.25 504.19 187.767 503.072 190.986C501.954 194.205 499.694 196.902 496.72 198.566V198.566Z" fill="#FFB6B6"/>
<path id="Vector_57" d="M311.484 101.595C311.484 101.595 294.571 106.824 298.599 126.687C302.628 146.551 353.474 184.024 361.489 190.309C369.503 196.594 436.2 188.122 436.2 188.122L453.428 166.153L388.472 156.968L311.484 101.595Z" fill="#6C63FF"/>
<path id="Vector_58" d="M378.391 35.9437C373.926 38.1431 368.87 34.9554 364.964 31.7853L366.362 32.9677C359.584 39.6989 356.482 49.3149 355.015 58.7644C353.546 68.2041 353.471 77.8432 351.596 87.2201C349.72 96.5871 345.724 106.02 338.139 111.824C327.979 119.597 313.851 119.25 301.26 117.028C301.092 116.996 300.936 116.972 300.768 116.94C304.049 107.142 305.317 96.7833 304.496 86.484C301.234 96.8471 295.597 106.305 288.033 114.104C279.678 111.897 271.515 109.017 263.624 105.493C258.519 103.207 253.014 100.065 251.548 94.6642C250.079 89.3046 253.304 83.6338 257.66 80.1952C262.015 76.7566 267.385 74.9307 272.361 72.4617C277.33 70.0042 282.236 66.5227 284.182 61.3229C288.67 49.3614 275.394 35.8252 280.393 24.061C282.858 18.2759 289.009 15.0797 294.796 12.6047C303.631 8.8363 312.71 5.66943 321.972 3.12576C330.103 0.891378 338.598 -0.86738 346.918 0.45692C355.237 1.78121 363.426 6.74898 366.496 14.6055C371.501 16.2398 376.815 18.0852 380.059 22.2504C383.302 26.4056 383.118 33.6185 378.391 35.9437Z" fill="#2F2E41"/>
<path id="Vector_59" d="M538.367 303.522C544.324 301.319 546.437 292.185 543.086 283.12C539.734 274.054 532.188 268.491 526.231 270.693C520.274 272.895 518.161 282.029 521.512 291.095C524.864 300.16 532.41 305.724 538.367 303.522Z" fill="#6C63FF"/>
</g>
<g id="left">
<path id="left-cycle" d="M156.249 615.12C134.888 615.12 114.008 608.786 96.247 596.919C78.4865 585.052 64.6439 568.185 56.4696 548.45C48.2953 528.716 46.1566 507 50.3238 486.05C54.491 465.101 64.777 445.857 79.8811 430.753C94.9851 415.649 114.229 405.363 135.179 401.195C156.129 397.028 177.844 399.167 197.578 407.341C217.313 415.516 234.18 429.358 246.047 447.119C257.915 464.879 264.249 485.76 264.249 507.12C264.216 535.754 252.827 563.205 232.58 583.452C212.333 603.699 184.882 615.088 156.249 615.12V615.12ZM156.249 409.12C136.866 409.12 117.919 414.868 101.803 425.636C85.6867 436.405 73.1258 451.71 65.7084 469.617C58.291 487.524 56.3503 507.229 60.1316 526.239C63.913 545.249 73.2466 562.711 86.9521 576.417C100.658 590.122 118.12 599.456 137.13 603.237C156.14 607.019 175.844 605.078 193.752 597.66C211.659 590.243 226.964 577.682 237.733 561.566C248.501 545.45 254.249 526.503 254.249 507.12C254.219 481.138 243.885 456.228 225.513 437.856C207.14 419.484 182.231 409.15 156.249 409.12V409.12Z" fill="#3F3D56"/>
<g id="Group 1">
<line id="Line 1" x1="154.492" y1="505.006" x2="72.4922" y2="566.006" stroke="#3F3D56" stroke-width="5"/>
<line id="Line 3" x1="142.469" y1="410.605" x2="158.469" y2="510.605" stroke="#3F3D56" stroke-width="5"/>
<line id="Line 2" x1="157.306" y1="500.868" x2="250.306" y2="557.868" stroke="#3F3D56" stroke-width="5"/>
</g>
</g>
<g id="right">
<path id="right-cycle" d="M624.689 613.567C602.146 613.567 580.109 606.882 561.365 594.358C542.621 581.833 528.012 564.032 519.385 543.205C510.758 522.378 508.501 499.461 512.899 477.351C517.297 455.241 528.153 434.931 544.093 418.991C560.033 403.051 580.343 392.195 602.452 387.797C624.562 383.399 647.48 385.657 668.307 394.283C689.134 402.91 706.935 417.519 719.459 436.263C731.984 455.007 738.668 477.044 738.668 499.587C738.634 529.806 726.615 558.777 705.247 580.145C683.879 601.513 654.908 613.532 624.689 613.567ZM624.689 396.161C604.233 396.161 584.237 402.227 567.228 413.591C550.22 424.956 536.964 441.109 529.136 460.008C521.307 478.906 519.259 499.702 523.25 519.764C527.241 539.827 537.091 558.256 551.555 572.72C566.02 587.185 584.449 597.035 604.511 601.026C624.574 605.016 645.369 602.968 664.268 595.14C683.167 587.312 699.32 574.056 710.684 557.047C722.049 540.039 728.115 520.043 728.115 499.587C728.084 472.166 717.177 445.877 697.788 426.488C678.398 407.099 652.109 396.192 624.689 396.161Z" fill="#3F3D56"/>
<g id="Group 2">
<line id="Line 1_2" y1="-2.5" x2="111.798" y2="-2.5" transform="matrix(-0.795273 0.606251 -0.587462 -0.809252 622.91 498.222)" stroke="#3F3D56" stroke-width="5"/>
<line id="Line 3_2" y1="-2.5" x2="112.457" y2="-2.5" transform="matrix(0.154266 0.988029 -0.986823 0.1618 608.815 396)" stroke="#3F3D56" stroke-width="5"/>
<line id="Line 2_2" y1="-2.5" x2="119.077" y2="-2.5" transform="matrix(0.846826 0.531871 -0.513294 0.858213 626.163 498.222)" stroke="#3F3D56" stroke-width="5"/>
</g>
</g>
</g>
<defs>
<filter id="filter0_d_2_2" x="0" y="0" width="802.67" height="623.311" filterUnits="userSpaceOnUse" color-interpolation-filters="sRGB">
<feFlood flood-opacity="0" result="BackgroundImageFix"/>
<feColorMatrix in="SourceAlpha" type="matrix" values="0 0 0 0 0 0 0 0 0 0 0 0 0 0 0 0 0 0 127 0" result="hardAlpha"/>
<feOffset dy="4"/>
<feGaussianBlur stdDeviation="2"/>
<feComposite in2="hardAlpha" operator="out"/>
<feColorMatrix type="matrix" values="0 0 0 0 0 0 0 0 0 0 0 0 0 0 0 0 0 0 0.25 0"/>
<feBlend mode="normal" in2="BackgroundImageFix" result="effect1_dropShadow_2_2"/>
<feBlend mode="normal" in="SourceGraphic" in2="effect1_dropShadow_2_2" result="shape"/>
</filter>
<clipPath id="clip0_2_2">
<rect width="794.67" height="615.311" fill="white" transform="translate(4)"/>
</clipPath>
</defs>
</svg>
