<svg width="208" height="188" viewBox="0 0 208 188" fill="none" xmlns="http://www.w3.org/2000/svg">
<g id="Group 1">
<g id="big">
<mask id="path-1-inside-1_7_129" fill="white">
<path d="M183 101C183 118.207 177.692 135.028 167.748 149.335C157.804 163.642 143.67 174.793 127.133 181.378C110.596 187.962 92.3996 189.685 74.8443 186.328C57.289 182.971 41.1635 174.685 28.5068 162.518C15.8502 150.351 7.23089 134.849 3.73893 117.973C0.24697 101.097 2.03917 83.6037 8.8889 67.7065C15.7386 51.8094 27.3382 38.2218 42.2209 28.6621C57.1035 19.1025 74.6008 14 92.5 14L92.5 101H183Z"/>
</mask>
<path d="M183 101C183 118.207 177.692 135.028 167.748 149.335C157.804 163.642 143.67 174.793 127.133 181.378C110.596 187.962 92.3996 189.685 74.8443 186.328C57.289 182.971 41.1635 174.685 28.5068 162.518C15.8502 150.351 7.23089 134.849 3.73893 117.973C0.24697 101.097 2.03917 83.6037 8.8889 67.7065C15.7386 51.8094 27.3382 38.2218 42.2209 28.6621C57.1035 19.1025 74.6008 14 92.5 14L92.5 101H183Z" fill="#D9D9D9" stroke="black" stroke-width="10" mask="url(#path-1-inside-1_7_129)"/>
</g>
<g id="small">
<mask id="path-2-inside-2_7_129" fill="white">
<path d="M105.102 1.44084C118.563 1.63006 131.858 4.21153 144.228 9.03788C156.599 13.8642 167.802 20.8409 177.2 29.5696C186.597 38.2983 194.004 48.6081 198.997 59.9103C203.99 71.2125 206.472 83.2858 206.301 95.4408L103.801 94L105.102 1.44084Z"/>
</mask>
<path d="M105.102 1.44084C118.563 1.63006 131.858 4.21153 144.228 9.03788C156.599 13.8642 167.802 20.8409 177.2 29.5696C186.597 38.2983 194.004 48.6081 198.997 59.9103C203.99 71.2125 206.472 83.2858 206.301 95.4408L103.801 94L105.102 1.44084Z" fill="#D9D9D9" stroke="black" stroke-width="10" mask="url(#path-2-inside-2_7_129)"/>
</g>
</g>
</svg>
